<svg width="16" height="17" viewBox="0 0 16 17" fill="none" xmlns="http://www.w3.org/2000/svg">
<path d="M8 1.5C4.134 1.5 1 4.634 1 8.5C1 12.366 4.134 15.5 8 15.5C11.866 15.5 15 12.366 15 8.5C15 4.634 11.866 1.5 8 1.5ZM8 7C8.13261 7 8.25979 7.05268 8.35355 7.14645C8.44732 7.24021 8.5 7.36739 8.5 7.5V12C8.5 12.1326 8.44732 12.2598 8.35355 12.3536C8.25979 12.4473 8.13261 12.5 8 12.5C7.86739 12.5 7.74021 12.4473 7.64645 12.3536C7.55268 12.2598 7.5 12.1326 7.5 12V7.5C7.5 7.36739 7.55268 7.24021 7.64645 7.14645C7.74021 7.05268 7.86739 7 8 7ZM8 6C7.80109 6 7.61032 5.92098 7.46967 5.78033C7.32902 5.63968 7.25 5.44891 7.25 5.25C7.25 5.05109 7.32902 4.86032 7.46967 4.71967C7.61032 4.57902 7.80109 4.5 8 4.5C8.19891 4.5 8.38968 4.57902 8.53033 4.71967C8.67098 4.86032 8.75 5.05109 8.75 5.25C8.75 5.44891 8.67098 5.63968 8.53033 5.78033C8.38968 5.92098 8.19891 6 8 6Z" fill="white"/>
</svg>
